<svg xmlns="http://www.w3.org/2000/svg" width="325" height="325" viewBox="0 0 325.00000000000006 325.00000000000006"><defs><clipPath id="a"><path d="M0 25h300v300H0z"/></clipPath></defs><path fill="none" stroke="#000" d="M0 325V25M18.75 325V25M37.5 325V25M56.25 325V25M75 325V25M93.75 325V25M112.5 325V25M131.25 325V25M150 325V25M168.75 325V25M187.5 325V25M206.25 325V25M225 325V25M243.75 325V25M262.5 325V25M281.25 325V25M300 325V25M0 325h300M0 306.25h300M0 287.5h300M0 268.75h300M0 250h300M0 231.25h300M0 212.5h300M0 193.75h300M0 175h300M0 156.25h300M0 137.5h300M0 118.75h300M0 100h300M0 81.25h300M0 62.5h300M0 43.75h300M0 25h300" stroke-width="2" opacity=".1"/><path fill="none" stroke="#000" d="M7.05 169.4c-.35 2.1-4.2 5.25-5.25 5.6 1.05.35 4.9 3.5 5.25 5.6" stroke-width="2" stroke-linejoin="round" stroke-linecap="round"/><path fill="none" stroke="#000" d="M150 175H1.05" stroke-width="2"/><path fill="none" stroke="#000" d="M294.45 180.6c.35-2.1 4.2-5.25 5.25-5.6-1.05-.35-4.9-3.5-5.25-5.6" stroke-width="2" stroke-linejoin="round" stroke-linecap="round"/><path fill="none" stroke="#000" d="M150 175h148.95" stroke-width="2"/><path fill="none" stroke="#000" d="M145.15 318.7c2.1.35 5.25 4.2 5.6 5.25.35-1.05 3.5-4.9 5.6-5.25" stroke-width="2" stroke-linejoin="round" stroke-linecap="round"/><path fill="none" stroke="#000" d="M150 175v148.95" stroke-width="2"/><path fill="none" stroke="#000" d="M156.35 31.3c-2.1-.35-5.25-4.2-5.6-5.25-.35 1.05-3.5 4.9-5.6 5.25" stroke-width="2" stroke-linejoin="round" stroke-linecap="round"/><path fill="none" stroke="#000" d="M150 175V26.05" stroke-width="2"/><path fill="none" stroke="#000" d="M168.75 180v-10M187.5 180v-10M206.25 180v-10M225 180v-10M243.75 180v-10M262.5 180v-10M281.25 180v-10M131.25 180v-10M112.5 180v-10M93.75 180v-10M75 180v-10M56.25 180v-10M37.5 180v-10M18.75 180v-10M145 156.25h10M145 137.5h10M145 118.75h10M145 100h10M145 81.25h10M145 62.5h10M145 43.75h10M145 193.75h10M145 212.5h10M145 231.25h10M145 250h10M145 268.75h10M145 287.5h10M145 306.25h10"/><ellipse cx="150" cy="306.25" rx="4" ry="4" fill="#11accd" stroke="#11accd" stroke-width="2" clip-path="url(#a)" stroke-dasharray="0"/><path fill="none" stroke="#11accd" d="M0-87.5l.5 2.343.5 2.327.5 2.313.5 2.298.5 2.283.5 2.269.5 2.254.5 2.239.5 2.224.5 2.21.5 2.196.5 2.181.5 2.167.5 2.152.5 2.138.5 2.124.5 2.11.5 2.094.5 2.081.5 2.067.5 2.053.5 2.039.5 2.025.5 2.01.5 1.997.5 1.983.5 1.97.5 1.955.5 1.942.5 1.928.5 1.914.5 1.901.5 1.887.5 1.874.5 1.86.5 1.847.5 1.833.5 1.82.5 1.807.5 1.793.5 1.78.5 1.768.5 1.754.5 1.74.5 1.728.5 1.715.5 1.701.5 1.69.5 1.675.5 1.663.5 1.65.5 1.638.5 1.625.5 1.612.5 1.6.5 1.586.5 1.575.5 1.562.5 1.549.5 1.537.5 1.525.5 1.512.5 1.5.5 1.488.5 1.475.5 1.464.5 1.45.5 1.44.5 1.427.5 1.415.5 1.404.5 1.391.5 1.38.5 1.367.5 1.356.5 1.344.5 1.333.5 1.32.5 1.31.5 1.297.5 1.286.5 1.275.5 1.263.5 1.252.5 1.24.5 1.23.5 1.218.5 1.206.5 1.196.5 1.184.5 1.173.5 1.163.5 1.15.5 1.14.5 1.13.5 1.119.5 1.107.5 1.097.5 1.086.5 1.075.5 1.065.5 1.054.5 1.044.5 1.033.5 1.022.5 1.012.5 1.002.5.99.5.982.5.97.5.96.5.95.5.94.5.93.5.92.5.91.5.9.5.89.5.88.5.87.5.86.5.851.5.841.5.831.5.821.5.812.5.802.5.793.5.784.5.773.5.765.5.755.5.746.5.737.5.727.5.718.5.709.5.7.5.691.5.682.5.673.5.664.5.655.5.647.5.637.5.629.5.62.5.612.5.603.5.594.5.586.5.577.5.569.5.56.5.552.5.544.5.535.5.528.5.519.5.51.5.503.5.495.5.487.5.478.5.471.5.463.5.455.5.447.5.44.5.431.5.424.5.417.5.408.5.402.5.393.5.387.5.379.5.371.5.364.5.357.5.35.5.342.5.335.5.328.5.321.5.314.5.307.5.3.5.293.5.286.5.28.5.272.5.266.5.259.5.253.5.246.5.239.5.233.5.226.5.22.5.214.5.207.5.201.5.194.5.188.5.183.5.176.5.169.5.164.5.158.5.152.5.146.5.14.5.134.5.128.5.123.5.117.5.111.5.105.5.1.5.095.5.089.5.083.5.078.5.073.5.067.5.062.5.057.5.052.5.046.5.042.5.036.5.031.5.026.5.021.5.017.5.011.5.007.5.002.5-.003.5-.008.5-.012.5-.017.5-.021.5-.026.5-.03.5-.035.5-.039.5-.044.5-.048.5-.052.5-.056.5-.061.5-.064.5-.069.5-.073.5-.077.5-.08.5-.085.5-.089.5-.092.5-.096.5-.1.5-.104.5-.108.5-.111.5-.114.5-.118.5-.122.5-.125.5-.128.5-.132.5-.136.5-.138.5-.142.5-.145.5-.148.5-.151.5-.154.5-.158.5-.16.5-.163.5-.166.5-.169.5-.172.5-.175.5-.177.5-.18.5-.183.5-.185.5-.188.5-.19.5-.193.5-.195.5-.198.5-.2.5-.202.5-.204.5-.207.5-.209.5-.211.5-.213.5-.215.5-.218.5-.219.5-.221.5-.223.5-.225.5-.226.5-.229.5-.23.5-.231.5-.234.5-.235.5-.236.5-.238.5-.239.5-.241.5-.242.5-.244.5-.245.5-.246.5-.247.5-.248.5-.25.5-.25.5-.252.5-.252.5-.254.5-.254.5-.255.5-.256.5-.257.5-.258.5-.258.5-.259.5-.259.5-.26.5-.261.5-.261.5-.261.5-.262.5-.262.5-.262.5-.263.5-.263.5-.263.5-.263.5-.263.5-.264.5-.263.5-.263.5-.264.5-.263.5-.263.5-.262.5-.263.5-.262.5-.262.5-.261.5-.261.5-.26.5-.26.5-.26.5-.259.5-.258.5-.258.5-.256.5-.256.5-.256.5-.254.5-.253.5-.253.5-.251.5-.251.5-.249.5-.249.5-.247.5-.246.5-.245.5-.243.5-.242.5-.241.5-.24.5-.238.5-.236.5-.235.5-.233.5-.232.5-.23.5-.228.5-.227.5-.225.5-.223.5-.221.5-.219.5-.217.5-.215.5-.213.5-.212.5-.208.5-.207.5-.205.5-.202.5-.2.5-.198.5-.195.5-.193.5-.19.5-.188.5-.185.5-.183.5-.18.5-.177.5-.175.5-.171.5-.169.5-.166.5-.164.5-.16.5-.157.5-.155.5-.151.5-.148.5-.145.5-.142.5-.138.5-.135.5-.132.5-.129.5-.125.5-.121.5-.118.5-.115.5-.111.5-.107.5-.104.5-.1.5-.096.5-.093.5-.088.5-.085.5-.081.5-.077.5-.073.5-.068.5-.065.5-.061.5-.056.5-.052.5-.048.5-.043.5-.04.5-.034.5-.031.5-.026.5-.021.5-.017.5-.012.5-.008.5-.002.5.001.5.007.5.012.5.016.5.021.5.026.5.032.5.036.5.041.5.047.5.051.5.057.5.062.5.067.5.073.5.078.5.084.5.089.5.094.5.1.5.106.5.111.5.117.5.122.5.129.5.134.5.14.5.146.5.151.5.158.5.164.5.17.5.176.5.182.5.188.5.195.5.201.5.207.5.213.5.22.5.226.5.233.5.24.5.245.5.253.5.259.5.266.5.273.5.279.5.286.5.293.5.3.5.307.5.314.5.321.5.328.5.335.5.343.5.349.5.357.5.364.5.372.5.379.5.386.5.394.5.401.5.409.5.416.5.424.5.432.5.439.5.448.5.455.5.462.5.471.5.479.5.487.5.494.5.503.5.511.5.519.5.527.5.536.5.543.5.552.5.561.5.568.5.578.5.585.5.595.5.603.5.611.5.62.5.629.5.638.5.646.5.655.5.664.5.673.5.682.5.691.5.7.5.709.5.718.5.728.5.736.5.746.5.755.5.765.5.774.5.783.5.793.5.802.5.812.5.822.5.831.5.841.5.85.5.86.5.871.5.88.5.889.5.9.5.91.5.92.5.93.5.94.5.95.5.96.5.971.5.981.5.991.5 1.001.5 1.012.5 1.023.5 1.033.5 1.043.5 1.054.5 1.065" stroke-width="3" clip-path="url(#a)"/><ellipse cx="150" cy="137.5" rx="4" ry="4" fill="#fff" stroke="#11accd" stroke-width="2" clip-path="url(#a)" stroke-dasharray="0"/></svg>
